<svg width="275" height="275" viewBox="0 0 275 275" fill="none" xmlns="http://www.w3.org/2000/svg">
<rect width="275" height="275" rx="20" fill="white"/>
<rect x="0.5" y="0.5" width="274" height="274" rx="19.5" stroke="black" stroke-opacity="0.15"/>
<path d="M94.2407 89.7019L80.9462 97.3255C80.0746 97.8253 80.0603 99.0774 80.9203 99.597L132.789 130.936C133.663 131.464 134.781 130.839 134.788 129.817L135.438 42.1797C135.446 41.1603 134.343 40.5186 133.46 41.029L119.23 49.2581C118.826 49.4919 118.576 49.9223 118.572 50.3893L118.203 100.127C118.196 101.129 117.117 101.756 116.242 101.267L95.5395 89.6948C95.1354 89.4689 94.6424 89.4716 94.2407 89.7019Z" fill="#65DCFF"/>
<path d="M74.9351 151.556L74.9185 166.881C74.9174 167.886 75.9958 168.522 76.8748 168.036L129.895 138.687C130.789 138.192 130.804 136.912 129.922 136.396L54.268 92.155C53.388 91.6405 52.282 92.2768 52.2847 93.2962L52.3269 109.734C52.3281 110.201 52.5764 110.633 52.9795 110.869L95.9156 135.977C96.7807 136.483 96.7871 137.731 95.9272 138.246L75.5762 150.426C75.179 150.664 74.9356 151.093 74.9351 151.556Z" fill="url(#paint0_linear_243_113)"/>
<path d="M157.514 75.9377L144.264 68.2361C143.396 67.7312 142.304 68.3448 142.284 69.3493L141.079 129.938C141.058 130.96 142.158 131.615 143.047 131.111L219.268 87.8546C220.155 87.3514 220.159 86.0754 219.276 85.5664L205.034 77.3574C204.629 77.1242 204.131 77.1225 203.725 77.353L160.467 101.902C159.596 102.397 158.513 101.776 158.499 100.774L158.169 77.0589C158.163 76.596 157.914 76.1704 157.514 75.9377Z" fill="url(#paint1_linear_243_113)"/>
<path d="M108.972 55.3315L82.7767 70.3294C81.9083 70.8266 81.8889 72.0722 82.7415 72.5961L108.708 88.5541C109.582 89.0915 110.708 88.4673 110.716 87.4409L110.945 56.4851C110.953 55.4683 109.855 54.8263 108.972 55.3315Z" fill="url(#paint2_linear_243_113)"/>
<path d="M52.2553 121.639L52.2321 151.824C52.2314 152.825 53.3022 153.462 54.1808 152.983L80.9424 138.398C81.8436 137.907 81.8624 136.619 80.9759 136.102L54.2375 120.502C53.3592 119.989 52.2561 120.622 52.2553 121.639Z" fill="#65DCFF"/>
<path d="M166.734 57.2282L166.711 87.4136C166.71 88.4142 167.781 89.0507 168.659 88.5719L195.421 73.9869C196.322 73.4958 196.341 72.2085 195.454 71.6912L168.716 56.0908C167.838 55.5784 166.735 56.2114 166.734 57.2282Z" fill="#65DCFF"/>
<path d="M181.904 186.298L195.198 178.675C196.07 178.175 196.084 176.923 195.224 176.403L143.356 145.065C142.481 144.536 141.364 145.161 141.356 146.183L140.706 233.82C140.699 234.84 141.802 235.482 142.684 234.971L156.914 226.742C157.319 226.508 157.569 226.078 157.572 225.611L157.941 175.873C157.949 174.871 159.028 174.244 159.902 174.733L180.605 186.305C181.009 186.531 181.502 186.529 181.904 186.298Z" fill="url(#paint3_linear_243_113)"/>
<path d="M201.211 124.444L201.228 109.119C201.229 108.114 200.151 107.478 199.272 107.964L146.252 137.313C145.358 137.808 145.343 139.088 146.225 139.604L221.878 183.845C222.758 184.36 223.864 183.723 223.862 182.704L223.82 166.266C223.818 165.799 223.57 165.367 223.167 165.131L180.231 140.023C179.366 139.517 179.359 138.269 180.219 137.754L200.57 125.574C200.968 125.336 201.211 124.907 201.211 124.444Z" fill="#65DCFF"/>
<path d="M118.633 200.062L131.882 207.764C132.751 208.269 133.842 207.655 133.862 206.651L135.068 146.062C135.088 145.04 133.988 144.385 133.1 144.89L56.8785 188.146C55.992 188.649 55.9877 189.925 56.8708 190.434L71.1125 198.643C71.5171 198.876 72.015 198.878 72.4212 198.647L115.679 174.098C116.551 173.603 117.634 174.224 117.648 175.226L117.977 198.941C117.983 199.404 118.232 199.83 118.633 200.062Z" fill="#65DCFF"/>
<path d="M167.17 220.669L193.366 205.671C194.234 205.174 194.254 203.928 193.401 203.404L167.435 187.446C166.56 186.909 165.434 187.533 165.427 188.559L165.197 219.515C165.19 220.532 166.288 221.174 167.17 220.669Z" fill="#65DCFF"/>
<path d="M223.889 154.361L223.912 124.176C223.913 123.175 222.842 122.538 221.964 123.017L195.202 137.602C194.301 138.093 194.282 139.381 195.169 139.898L221.907 155.498C222.785 156.011 223.888 155.378 223.889 154.361Z" fill="url(#paint4_linear_243_113)"/>
<path d="M109.411 218.772L109.434 188.587C109.435 187.586 108.364 186.949 107.485 187.428L80.7236 202.013C79.8224 202.504 79.8036 203.792 80.6901 204.309L107.429 219.909C108.307 220.422 109.41 219.789 109.411 218.772Z" fill="url(#paint5_linear_243_113)"/>
<defs>
<linearGradient id="paint0_linear_243_113" x1="68.65" y1="154.44" x2="88.99" y2="119.658" gradientUnits="userSpaceOnUse">
<stop stop-color="#06B6D4"/>
<stop offset="1" stop-color="#3B82F6"/>
<stop offset="1" stop-color="#3B82F6"/>
</linearGradient>
<linearGradient id="paint1_linear_243_113" x1="158.172" y1="69.0538" x2="178.059" y2="104.097" gradientUnits="userSpaceOnUse">
<stop stop-color="#06B6D4"/>
<stop offset="1" stop-color="#3B82F6"/>
<stop offset="1" stop-color="#3B82F6"/>
</linearGradient>
<linearGradient id="paint2_linear_243_113" x1="85.9365" y1="71.8122" x2="107.504" y2="71.9721" gradientUnits="userSpaceOnUse">
<stop stop-color="#06B6D4"/>
<stop offset="1" stop-color="#3B82F6"/>
<stop offset="1" stop-color="#3B82F6"/>
</linearGradient>
<linearGradient id="paint3_linear_243_113" x1="187.537" y1="190.31" x2="147.245" y2="190.011" gradientUnits="userSpaceOnUse">
<stop stop-color="#06B6D4"/>
<stop offset="1" stop-color="#3B82F6"/>
<stop offset="1" stop-color="#3B82F6"/>
</linearGradient>
<linearGradient id="paint4_linear_243_113" x1="221.054" y1="126.179" x2="210.185" y2="144.808" gradientUnits="userSpaceOnUse">
<stop stop-color="#06B6D4"/>
<stop offset="1" stop-color="#3B82F6"/>
<stop offset="1" stop-color="#3B82F6"/>
</linearGradient>
<linearGradient id="paint5_linear_243_113" x1="106.576" y1="190.59" x2="95.7062" y2="209.219" gradientUnits="userSpaceOnUse">
<stop stop-color="#06B6D4"/>
<stop offset="1" stop-color="#3B82F6"/>
<stop offset="1" stop-color="#3B82F6"/>
</linearGradient>
</defs>
</svg>
