<svg width="816" height="816" viewBox="0 0 816 816" fill="none" xmlns="http://www.w3.org/2000/svg">
    <path
        d="M280.048 266.928L241.239 289.183C238.694 290.642 238.652 294.297 241.163 295.814L392.578 387.297C395.131 388.84 398.393 387.016 398.415 384.033L400.312 128.201C400.334 125.226 397.114 123.352 394.538 124.842L352.998 148.865C351.818 149.547 351.087 150.803 351.077 152.167L350 297.36C349.978 300.286 346.829 302.118 344.275 300.69L283.839 266.907C282.66 266.248 281.221 266.256 280.048 266.928Z"
        fill="#65DCFF" />
    <path
        d="M223.689 447.492L223.64 492.229C223.637 495.162 226.785 497.02 229.351 495.6L384.127 409.925C386.737 408.48 386.781 404.743 384.206 403.238L163.357 274.089C160.788 272.587 157.559 274.444 157.567 277.42L157.69 325.406C157.694 326.77 158.419 328.029 159.596 328.718L284.935 402.014C287.461 403.491 287.479 407.134 284.969 408.637L225.56 444.194C224.401 444.888 223.69 446.14 223.689 447.492Z"
        fill="url(#paint0_linear_468_196)" />
    <path
        d="M464.756 226.748L426.078 204.265C423.542 202.791 420.356 204.583 420.298 207.515L416.778 384.386C416.718 387.368 419.929 389.281 422.523 387.808L645.029 261.536C647.617 260.067 647.63 256.342 645.052 254.856L603.477 230.892C602.296 230.211 600.843 230.207 599.657 230.879L473.377 302.544C470.833 303.988 467.671 302.176 467.631 299.251L466.67 230.021C466.651 228.669 465.925 227.427 464.756 226.748Z"
        fill="url(#paint1_linear_468_196)" />
    <path
        d="M323.05 166.594L246.579 210.376C244.044 211.827 243.988 215.463 246.477 216.993L322.277 263.577C324.83 265.146 328.117 263.324 328.139 260.328L328.81 169.962C328.832 166.994 325.626 165.119 323.05 166.594Z"
        fill="url(#paint2_linear_468_196)" />
    <path
        d="M157.483 360.159L157.415 448.276C157.413 451.197 160.539 453.055 163.104 451.657L241.227 409.081C243.857 407.647 243.912 403.889 241.324 402.379L163.269 356.839C160.705 355.343 157.485 357.191 157.483 360.159Z"
        fill="#65DCFF" />
    <path
        d="M491.668 172.131L491.601 260.248C491.598 263.169 494.724 265.027 497.289 263.629L575.412 221.053C578.043 219.619 578.098 215.861 575.51 214.351L497.455 168.811C494.891 167.315 491.671 169.163 491.668 172.131Z"
        fill="#65DCFF" />
    <path
        d="M535.956 548.912L574.765 526.657C577.31 525.198 577.351 521.543 574.841 520.026L423.426 428.542C420.873 427 417.611 428.824 417.589 431.807L415.692 687.638C415.67 690.614 418.89 692.487 421.466 690.998L463.006 666.975C464.186 666.293 464.917 665.036 464.927 663.673L466.004 518.48C466.026 515.554 469.175 513.722 471.729 515.15L532.164 548.932C533.344 549.592 534.783 549.584 535.956 548.912Z"
        fill="url(#paint3_linear_468_196)" />
    <path
        d="M592.317 368.348L592.366 323.61C592.369 320.677 589.221 318.819 586.655 320.24L431.879 405.914C429.269 407.359 429.225 411.096 431.8 412.602L652.649 541.75C655.218 543.253 658.446 541.395 658.439 538.419L658.316 490.433C658.312 489.07 657.587 487.81 656.41 487.122L531.071 413.825C528.545 412.349 528.527 408.705 531.037 407.203L590.446 371.645C591.605 370.951 592.316 369.699 592.317 368.348Z"
        fill="#65DCFF" />
    <path
        d="M351.254 589.093L389.932 611.575C392.467 613.049 395.654 611.258 395.712 608.325L399.232 431.455C399.292 428.472 396.081 426.56 393.486 428.032L170.981 554.305C168.393 555.774 168.38 559.499 170.958 560.985L212.533 584.948C213.714 585.629 215.167 585.634 216.353 584.961L342.633 513.297C345.177 511.853 348.338 513.664 348.379 516.59L349.34 585.82C349.359 587.171 350.085 588.413 351.254 589.093Z"
        fill="#65DCFF" />
    <path
        d="M492.946 649.246L569.417 605.464C571.952 604.013 572.008 600.377 569.52 598.847L493.719 552.263C491.166 550.694 487.879 552.516 487.857 555.512L487.187 645.878C487.165 648.847 490.37 650.721 492.946 649.246Z"
        fill="#65DCFF" />
    <path
        d="M658.521 455.681L658.589 367.564C658.591 364.643 655.465 362.785 652.9 364.182L574.777 406.759C572.147 408.193 572.092 411.951 574.68 413.46L652.735 459.001C655.299 460.497 658.519 458.649 658.521 455.681Z"
        fill="url(#paint4_linear_468_196)" />
    <path
        d="M324.334 643.709L324.401 555.592C324.404 552.671 321.278 550.812 318.713 552.21L240.59 594.787C237.959 596.221 237.904 599.978 240.492 601.488L318.547 647.029C321.111 648.525 324.331 646.677 324.334 643.709Z"
        fill="url(#paint5_linear_468_196)" />
    <defs>
        <linearGradient id="paint0_linear_468_196" x1="205.341" y1="455.911" x2="264.717"
            y2="354.375" gradientUnits="userSpaceOnUse">
            <stop stop-color="#06B6D4" />
            <stop offset="1" stop-color="#3B82F6" />
            <stop offset="1" stop-color="#3B82F6" />
        </linearGradient>
        <linearGradient id="paint1_linear_468_196" x1="466.676" y1="206.652" x2="524.73" y2="308.95"
            gradientUnits="userSpaceOnUse">
            <stop stop-color="#06B6D4" />
            <stop offset="1" stop-color="#3B82F6" />
            <stop offset="1" stop-color="#3B82F6" />
        </linearGradient>
        <linearGradient id="paint2_linear_468_196" x1="255.804" y1="214.705" x2="318.765"
            y2="215.171" gradientUnits="userSpaceOnUse">
            <stop stop-color="#06B6D4" />
            <stop offset="1" stop-color="#3B82F6" />
            <stop offset="1" stop-color="#3B82F6" />
        </linearGradient>
        <linearGradient id="paint3_linear_468_196" x1="552.399" y1="560.622" x2="434.779"
            y2="559.75" gradientUnits="userSpaceOnUse">
            <stop stop-color="#06B6D4" />
            <stop offset="1" stop-color="#3B82F6" />
            <stop offset="1" stop-color="#3B82F6" />
        </linearGradient>
        <linearGradient id="paint4_linear_468_196" x1="650.245" y1="373.412" x2="618.515"
            y2="427.795" gradientUnits="userSpaceOnUse">
            <stop stop-color="#06B6D4" />
            <stop offset="1" stop-color="#3B82F6" />
            <stop offset="1" stop-color="#3B82F6" />
        </linearGradient>
        <linearGradient id="paint5_linear_468_196" x1="316.057" y1="561.44" x2="284.328"
            y2="615.823" gradientUnits="userSpaceOnUse">
            <stop stop-color="#06B6D4" />
            <stop offset="1" stop-color="#3B82F6" />
            <stop offset="1" stop-color="#3B82F6" />
        </linearGradient>
    </defs>
</svg>
