<svg width="250" height="250" viewBox="0 0 250 250" fill="none" xmlns="http://www.w3.org/2000/svg">
    <path
        d="M85.7985 81.7794L73.9083 88.5977C73.1288 89.0447 73.1161 90.1645 73.8851 90.6292L120.274 118.657C121.057 119.13 122.056 118.571 122.063 117.657L122.644 39.2774C122.651 38.3657 121.664 37.7918 120.875 38.2482L108.148 45.6081C107.787 45.8172 107.563 46.202 107.56 46.6198L107.23 91.103C107.223 91.9993 106.258 92.5605 105.476 92.1232L86.9601 81.7731C86.5987 81.5711 86.1577 81.5735 85.7985 81.7794Z"
        fill="#65DCFF" />
    <path
        d="M68.5314 137.099L68.5166 150.806C68.5156 151.704 69.4801 152.273 70.2662 151.838L117.685 125.59C118.485 125.147 118.499 124.002 117.71 123.541L50.0475 83.9733C49.2605 83.5131 48.2713 84.0822 48.2736 84.9939L48.3114 99.6955C48.3124 100.113 48.5345 100.499 48.8951 100.71L87.2957 123.166C88.0694 123.618 88.0751 124.735 87.306 125.195L69.1048 136.089C68.7495 136.302 68.5319 136.685 68.5314 137.099Z"
        fill="url(#paint0_linear_619_62)" />
    <path
        d="M142.389 69.4693L130.539 62.5813C129.762 62.1297 128.786 62.6785 128.768 63.5769L127.69 117.765C127.672 118.679 128.655 119.265 129.45 118.814L197.62 80.1273C198.413 79.6773 198.416 78.5361 197.627 78.0808L184.889 70.7391C184.527 70.5305 184.082 70.529 183.719 70.7351L145.03 92.6911C144.251 93.1335 143.282 92.5785 143.27 91.6823L142.975 70.4721C142.97 70.0581 142.747 69.6774 142.389 69.4693Z"
        fill="url(#paint1_linear_619_62)" />
    <path
        d="M98.9724 51.0399L75.5438 64.4534C74.7671 64.8981 74.7498 66.0121 75.5123 66.4807L98.7356 80.7529C99.5177 81.2335 100.525 80.6753 100.532 79.7574L100.737 52.0716C100.744 51.1622 99.7616 50.588 98.9724 51.0399Z"
        fill="url(#paint2_linear_619_62)" />
    <path
        d="M48.2491 110.343L48.2284 137.339C48.2277 138.234 49.1854 138.804 49.9713 138.375L73.9059 125.331C74.712 124.892 74.7287 123.741 73.9359 123.278L50.022 109.326C49.2365 108.867 48.2498 109.433 48.2491 110.343Z"
        fill="#65DCFF" />
    <path
        d="M150.632 52.7362L150.611 79.7329C150.611 80.6278 151.568 81.1971 152.354 80.7688L176.289 67.7246C177.095 67.2853 177.112 66.134 176.319 65.6714L152.405 51.719C151.619 51.2607 150.633 51.8268 150.632 52.7362Z"
        fill="#65DCFF" />
    <path
        d="M164.201 168.171L176.092 161.353C176.871 160.906 176.884 159.786 176.115 159.322L129.726 131.294C128.943 130.821 127.944 131.38 127.937 132.294L127.356 210.674C127.349 211.585 128.336 212.159 129.125 211.703L141.852 204.343C142.213 204.134 142.437 203.749 142.44 203.331L142.77 158.848C142.777 157.952 143.742 157.39 144.524 157.828L163.04 168.178C163.401 168.38 163.842 168.377 164.201 168.171Z"
        fill="url(#paint3_linear_619_62)" />
    <path
        d="M181.469 112.852L181.483 99.1453C181.484 98.2467 180.52 97.6775 179.734 98.1127L132.315 124.361C131.515 124.804 131.501 125.948 132.29 126.41L199.953 165.977C200.74 166.438 201.729 165.869 201.726 164.957L201.689 150.255C201.688 149.838 201.465 149.452 201.105 149.241L162.704 126.785C161.931 126.332 161.925 125.216 162.694 124.756L180.895 113.862C181.25 113.649 181.468 113.266 181.469 112.852Z"
        fill="#65DCFF" />
    <path
        d="M107.615 180.482L119.465 187.37C120.242 187.821 121.218 187.273 121.236 186.374L122.314 132.186C122.332 131.272 121.349 130.686 120.554 131.137L52.3841 169.824C51.5912 170.274 51.5874 171.415 52.3773 171.87L65.1145 179.212C65.4764 179.421 65.9217 179.422 66.285 179.216L104.974 157.26C105.753 156.818 106.722 157.373 106.734 158.269L107.029 179.479C107.034 179.893 107.257 180.274 107.615 180.482Z"
        fill="#65DCFF" />
    <path
        d="M151.026 198.911L174.454 185.498C175.231 185.053 175.248 183.939 174.486 183.47L151.262 169.198C150.48 168.717 149.473 169.276 149.466 170.194L149.261 197.879C149.254 198.789 150.236 199.363 151.026 198.911Z"
        fill="#65DCFF" />
    <path
        d="M201.753 139.608L201.774 112.611C201.774 111.716 200.817 111.147 200.031 111.576L176.096 124.62C175.29 125.059 175.273 126.21 176.066 126.673L199.98 140.625C200.765 141.084 201.752 140.518 201.753 139.608Z"
        fill="url(#paint4_linear_619_62)" />
    <path
        d="M99.3681 197.215L99.3888 170.218C99.3895 169.323 98.4317 168.754 97.6459 169.182L73.7113 182.226C72.9052 182.666 72.8884 183.817 73.6813 184.28L97.5952 198.232C98.3807 198.69 99.3674 198.124 99.3681 197.215Z"
        fill="url(#paint5_linear_619_62)" />
    <defs>
        <linearGradient id="paint0_linear_619_62" x1="62.9102" y1="139.679" x2="81.1015"
            y2="108.571" gradientUnits="userSpaceOnUse">
            <stop stop-color="#06B6D4" />
            <stop offset="1" stop-color="#3B82F6" />
            <stop offset="1" stop-color="#3B82F6" />
        </linearGradient>
        <linearGradient id="paint1_linear_619_62" x1="142.977" y1="63.3126" x2="160.764"
            y2="94.6538" gradientUnits="userSpaceOnUse">
            <stop stop-color="#06B6D4" />
            <stop offset="1" stop-color="#3B82F6" />
            <stop offset="1" stop-color="#3B82F6" />
        </linearGradient>
        <linearGradient id="paint2_linear_619_62" x1="78.3698" y1="65.7796" x2="97.6594"
            y2="65.9226" gradientUnits="userSpaceOnUse">
            <stop stop-color="#06B6D4" />
            <stop offset="1" stop-color="#3B82F6" />
            <stop offset="1" stop-color="#3B82F6" />
        </linearGradient>
        <linearGradient id="paint3_linear_619_62" x1="169.239" y1="171.759" x2="133.204"
            y2="171.492" gradientUnits="userSpaceOnUse">
            <stop stop-color="#06B6D4" />
            <stop offset="1" stop-color="#3B82F6" />
            <stop offset="1" stop-color="#3B82F6" />
        </linearGradient>
        <linearGradient id="paint4_linear_619_62" x1="199.217" y1="114.403" x2="189.496"
            y2="131.065" gradientUnits="userSpaceOnUse">
            <stop stop-color="#06B6D4" />
            <stop offset="1" stop-color="#3B82F6" />
            <stop offset="1" stop-color="#3B82F6" />
        </linearGradient>
        <linearGradient id="paint5_linear_619_62" x1="96.8324" y1="172.01" x2="87.1113" y2="188.671"
            gradientUnits="userSpaceOnUse">
            <stop stop-color="#06B6D4" />
            <stop offset="1" stop-color="#3B82F6" />
            <stop offset="1" stop-color="#3B82F6" />
        </linearGradient>
    </defs>
</svg>
