<svg height="426pt" viewBox="0 0 426.66667 426" width="426pt" xmlns="http://www.w3.org/2000/svg"><g fill="#42a5f5"><path d="m51.324219 219 57.035156-114.148438 69.511719 59.539063c.953125.828125 2.171875 1.285156 3.4375 1.285156 1.578125-.011719 3.078125-.707031 4.105468-1.90625.910157-1.066406 1.359376-2.449219 1.246094-3.84375-.113281-1.417969-.785156-2.730469-1.867187-3.648437l-41.65625-35.675782 59.429687-99.035156 80.78125 141.402344c.953125 1.667969 2.730469 2.699219 4.652344 2.699219.914062.011719 1.816406-.21875 2.609375-.671875 1.238281-.695313 2.148437-1.855469 2.53125-3.222656.382813-1.367188.207031-2.832032-.488281-4.070313l-21.199219-37.027344 46.421875-37.152343 58.050781 135.476562zm0 0"/><path d="m96 347h44.105469l-15.890625-31.839844c-3.09375-5.066406-6.773438-6.292968-1.707032-9.28125 2.414063-1.460937 5.316407-1.902344 8.058594-1.222656 2.742188.679688 5.101563 2.425781 6.554688 4.851562l58.933594 98.183594 77.171874-41.226562 19.894532-99.464844h-253.121094zm0 0"/><path d="m303.785156 269.078125-10.238281 56.589844h36.746094l35.574219-58.667969h-56.535157c0 .691406-5.386719 1.386719-5.546875 2.078125zm0 0"/></g><path d="m416 213.667969h-24.960938l-61.226562-142.882813c-1.320312-3.054687-3.992188-5.320312-7.222656-6.125-3.234375-.804687-6.65625-.058594-9.257813 2.019532l-45.652343 36.535156-55.734376-97.496094c-1.894531-3.285156-5.378906-5.332031-9.171874-5.386719h-.105469c-3.738281.007813-7.199219 1.96875-9.121094 5.175781l-59.945313 99.890626-20-17.171876c-2.5-2.101562-5.808593-2.960937-9.015624-2.347656-3.242188.632813-6.003907 2.746094-7.464844 5.707032l-61.066406 122.082031h-25.386719c-5.890625 0-10.667969 4.773437-10.667969 10.664062s4.777344 10.667969 10.667969 10.667969h405.332031c5.890625 0 10.667969-4.777344 10.667969-10.667969s-4.777344-10.664062-10.667969-10.664062zm-356.054688 0 50.132813-100.320313 64.320313 55.09375c4.480468 3.828125 11.210937 3.300782 15.042968-1.175781 3.828125-4.476563 3.300782-11.210937-1.175781-15.039063l-38.238281-32.746093 52.425781-87.359375 76.265625 133.492187c1.902344 3.332031 5.445312 5.390625 9.28125 5.386719 1.851562.015625 3.675781-.464844 5.28125-1.386719 5.125-2.914062 6.917969-9.433593 4-14.558593l-18.933594-33.066407 37.386719-29.921875 52.105469 121.601563zm0 0" fill="#323232"/><path d="m379.253906 258.148438c-4.890625-3.269532-11.503906-1.957032-14.773437 2.929687l-3.945313 5.921875-35.574218 53.332031h-26.082032l10.242188-51.253906c.148437-.679687.21875-1.378906.210937-2.078125.023438-5.09375-3.582031-9.484375-8.585937-10.453125-5.765625-1.113281-11.355469 2.621094-12.53125 8.375l-.429688 2.078125-19.890625 99.464844-71.839843 35.894531-58.933594-98.1875c-3.035156-5.035156-9.578125-6.660156-14.613282-3.625-5.039062 3.035156-6.660156 9.578125-3.628906 14.613281l15.894532 26.507813h-33.441407l-56-74.667969-4.796875-6.398438c-3.535156-4.714843-10.222656-5.667968-14.933594-2.136718-4.714843 3.535156-5.667968 10.222656-2.136718 14.933594l64 85.335937c2.023437 2.675781 5.179687 4.253906 8.535156 4.265625h51.574219l35.304687 58.828125c2.851563 4.769531 8.898438 6.535156 13.867188 4.050781l85.332031-42.664062c2.964844-1.464844 5.074219-4.226563 5.707031-7.46875l6.828125-34.078125h36.054688c3.5625.011719 6.890625-1.773438 8.851562-4.746094l42.667969-64c1.582031-2.347656 2.160156-5.226563 1.609375-8s-2.1875-5.210937-4.542969-6.773437zm0 0" fill="#323232"/></svg>
