<svg height="436pt" viewBox="0 -41 436.90667 436" width="436pt" xmlns="http://www.w3.org/2000/svg"><path d="m375.464844 157.464844c0-45.242188-70.296875-81.917969-157.011719-81.917969s-157.011719 36.675781-157.011719 81.917969zm0 0" fill="#94c1ff"/><g fill="#0e65e5"><path d="m375.464844 164.292969h-314.023438c-3.773437 0-6.828125-3.054688-6.828125-6.828125 0-49.761719 71.964844-88.746094 163.839844-88.746094s163.839844 38.984375 163.839844 88.746094c0 3.773437-3.054688 6.828125-6.828125 6.828125zm-306.550782-13.652344h299.078126c-7.160157-37.652344-72.726563-68.265625-149.539063-68.265625s-142.378906 30.613281-149.539063 68.265625zm0 0"/><path d="m382.292969 164.292969h-327.679688v-6.828125c0-49.761719 71.964844-88.746094 163.839844-88.746094s163.839844 38.984375 163.839844 88.746094zm-313.378907-13.652344h299.078126c-7.160157-37.652344-72.726563-68.265625-149.539063-68.265625s-142.378906 30.613281-149.539063 68.265625zm0 0"/><path d="m109.226562 96.027344h13.652344v61.925781h-13.652344zm0 0"/><path d="m150.1875 82.375h13.652344v75.578125h-13.652344zm0 0"/><path d="m191.148438 75.546875h13.652343v82.40625h-13.652343zm0 0"/><path d="m232.105469 75.546875h13.65625v82.40625h-13.65625zm0 0"/><path d="m273.066406 82.375h13.652344v75.578125h-13.652344zm0 0"/><path d="m314.027344 96.027344h13.652344v61.925781h-13.652344zm0 0"/></g><path d="m61.441406 157.464844c0-30.160156-24.453125-54.613282-54.613281-54.613282v55.171876zm0 0" fill="#94c1ff"/><path d="m6.828125 164.851562c-1.800781 0-3.527344-.710937-4.800781-1.976562-1.300782-1.28125-2.027344-3.027344-2.027344-4.851562v-55.171876c0-3.769531 3.054688-6.824218 6.828125-6.824218 33.878906 0 61.4375 27.5625 61.4375 61.4375 0 3.746094-3.011719 6.789062-6.757813 6.828125l-54.613281.558593c-.023437 0-.046875 0-.066406 0zm54.613281-7.386718h.066406zm-47.789062-47.296875v40.957031l40.488281-.410156c-2.976563-20.933594-19.566406-37.542969-40.488281-40.546875zm0 0" fill="#0e65e5"/><path d="m136.535156 334.960938c0-7.542969-27.507812-13.652344-61.441406-13.652344s-61.441406 6.109375-61.441406 13.652344c0 7.539062 27.507812 13.652343 61.441406 13.652343s61.441406-6.113281 61.441406-13.652343zm0 0" fill="#0e65e5"/><path d="m75.09375 355.441406c-16.015625 0-68.265625-1.476562-68.265625-20.480468 0-19.003907 52.25-20.480469 68.265625-20.480469 16.011719 0 68.265625 1.476562 68.265625 20.480469 0 19.003906-52.253906 20.480468-68.265625 20.480468zm-51.992188-20.480468c7.125 3.007812 25.03125 6.824218 51.992188 6.824218s44.867188-3.816406 51.992188-6.824218c-7.125-3.007813-25.03125-6.828126-51.992188-6.828126s-44.867188 3.820313-51.992188 6.828126zm107.164063 1.871093h.066406zm0 0" fill="#0e65e5"/><path d="m423.253906 334.960938c0-7.542969-27.507812-13.652344-61.441406-13.652344-33.929688 0-61.4375 6.109375-61.4375 13.652344 0 7.539062 27.507812 13.652343 61.4375 13.652343 33.933594 0 61.441406-6.113281 61.441406-13.652343zm0 0" fill="#0e65e5"/><path d="m361.8125 355.441406c-16.011719 0-68.265625-1.476562-68.265625-20.480468 0-19.003907 52.253906-20.480469 68.265625-20.480469 16.015625 0 68.265625 1.476562 68.265625 20.480469 0 19.003906-52.25 20.480468-68.265625 20.480468zm-51.992188-20.480468c7.125 3.007812 25.03125 6.824218 51.992188 6.824218s44.867188-3.816406 51.996094-6.824218c-7.128906-3.007813-25.035156-6.828126-51.996094-6.828126s-44.867188 3.820313-51.992188 6.828126zm107.167969 1.871093h.066407zm0 0" fill="#0e65e5"/><path d="m375.464844 157.464844c0-30.160156 24.453125-54.613282 54.613281-54.613282v55.171876zm0 0" fill="#94c1ff"/><path d="m430.078125 164.851562c-.019531 0-.042969 0-.066406 0l-54.613281-.558593c-3.746094-.039063-6.757813-3.082031-6.757813-6.828125 0-33.875 27.558594-61.4375 61.4375-61.4375 3.773437 0 6.828125 3.054687 6.828125 6.824218v55.171876c0 1.824218-.726562 3.570312-2.027344 4.851562-1.273437 1.265625-3 1.976562-4.800781 1.976562zm-47.3125-14.136718 40.488281.410156v-40.957031c-20.921875 3.003906-37.511718 19.613281-40.488281 40.546875zm0 0" fill="#0e65e5"/><path d="m61.441406 157.464844h27.304688v150.1875h-27.304688zm0 0" fill="#2a8ee6"/><path d="m88.746094 314.480469h-27.304688c-3.773437 0-6.828125-3.058594-6.828125-6.828125v-150.1875c0-3.769532 3.054688-6.824219 6.828125-6.824219h27.304688c3.773437 0 6.828125 3.054687 6.828125 6.824219v150.1875c0 3.769531-3.054688 6.828125-6.828125 6.828125zm-20.480469-13.652344h13.65625v-136.535156h-13.65625zm0 0" fill="#0e65e5"/><path d="m109.226562 334.960938c0-18.851563-15.28125-34.132813-34.132812-34.132813s-34.132812 15.28125-34.132812 34.132813zm0 0" fill="#94c1ff"/><path d="m109.226562 341.785156h-68.265624c-3.773438 0-6.828126-3.054687-6.828126-6.824218 0-22.585938 18.375-40.960938 40.960938-40.960938s40.960938 18.375 40.960938 40.960938c0 3.769531-3.054688 6.824218-6.828126 6.824218zm-60.574218-13.652344h52.878906c-3.03125-11.761718-13.738281-20.480468-26.4375-20.480468s-23.40625 8.71875-26.441406 20.480468zm0 0" fill="#0e65e5"/><path d="m348.160156 157.464844h27.304688v150.1875h-27.304688zm0 0" fill="#2a8ee6"/><path d="m375.464844 314.480469h-27.304688c-3.773437 0-6.828125-3.058594-6.828125-6.828125v-150.1875c0-3.769532 3.054688-6.824219 6.828125-6.824219h27.304688c3.773437 0 6.828125 3.054687 6.828125 6.824219v150.1875c0 3.769531-3.054688 6.828125-6.828125 6.828125zm-20.476563-13.652344h13.652344v-136.535156h-13.652344zm0 0" fill="#0e65e5"/><path d="m395.945312 334.960938c0-18.851563-15.28125-34.132813-34.132812-34.132813s-34.132812 15.28125-34.132812 34.132813zm0 0" fill="#94c1ff"/><path d="m395.945312 341.785156h-68.265624c-3.773438 0-6.828126-3.054687-6.828126-6.824218 0-22.585938 18.375-40.960938 40.960938-40.960938s40.960938 18.375 40.960938 40.960938c0 3.769531-3.054688 6.824218-6.828126 6.824218zm-60.570312-13.652344h52.878906c-3.035156-11.761718-13.742187-20.480468-26.441406-20.480468s-23.40625 8.71875-26.4375 20.480468zm0 0" fill="#0e65e5"/><path d="m143.359375 218.90625c-3.773437 0-6.824219-3.054688-6.824219-6.828125v-27.304687c0-3.769532 3.050782-6.828126 6.824219-6.828126s6.828125 3.058594 6.828125 6.828126v27.304687c0 3.773437-3.054688 6.828125-6.828125 6.828125zm0 0" fill="#0e65e5"/><path d="m157.011719 205.253906h-27.304688c-3.773437 0-6.828125-3.058594-6.828125-6.828125s3.054688-6.824219 6.828125-6.824219h27.304688c3.773437 0 6.828125 3.054688 6.828125 6.824219s-3.054688 6.828125-6.828125 6.828125zm0 0" fill="#0e65e5"/><path d="m334.507812 41.414062c-3.773437 0-6.828124-3.058593-6.828124-6.828124v-27.304688c0-3.769531 3.054687-6.828125 6.828124-6.828125 3.773438 0 6.824219 3.058594 6.824219 6.828125v27.304688c0 3.769531-3.050781 6.828124-6.824219 6.828124zm0 0" fill="#0e65e5"/><path d="m348.160156 27.761719h-27.308594c-3.773437 0-6.824218-3.058594-6.824218-6.828125 0-3.769532 3.050781-6.828125 6.824218-6.828125h27.308594c3.773438 0 6.828125 3.058593 6.828125 6.828125 0 3.769531-3.054687 6.828125-6.828125 6.828125zm0 0" fill="#0e65e5"/><path d="m266.238281 287.171875c-3.773437 0-6.824219-3.054687-6.824219-6.824219v-27.308594c0-3.769531 3.050782-6.824218 6.824219-6.824218 3.773438 0 6.828125 3.054687 6.828125 6.824218v27.308594c0 3.769532-3.054687 6.824219-6.828125 6.824219zm0 0" fill="#0e65e5"/><path d="m279.894531 273.519531h-27.308593c-3.773438 0-6.824219-3.054687-6.824219-6.828125 0-3.769531 3.050781-6.824218 6.824219-6.824218h27.308593c3.773438 0 6.824219 3.054687 6.824219 6.824218 0 3.773438-3.050781 6.828125-6.824219 6.828125zm0 0" fill="#0e65e5"/><path d="m75.09375 246.214844c-3.773438 0-6.828125-3.058594-6.828125-6.828125v-47.785157c0-3.773437 3.054687-6.828124 6.828125-6.828124s6.828125 3.054687 6.828125 6.828124v47.785157c0 3.769531-3.054687 6.828125-6.828125 6.828125zm0 0" fill="#fff"/></svg>
