<svg height="512pt" viewBox="0 -47 512 512" width="512pt" xmlns="http://www.w3.org/2000/svg"><path d="m191.195312 61.085938h-129.945312v296.496093h389.828125c0-4.042969 0-277.34375 0-296.496093-13.609375 0-245.929687 0-259.882813 0zm0 0" fill="#60b8fe"/><path d="m61.25 61.085938v296.496093h37.5c0-10.683593 0-277.699219 0-296.496093zm0 0" fill="#23a8fe"/><g fill="#fee55a"><path d="m88.902344 61.085938c0 15.269531-12.378906 27.648437-27.652344 27.648437-15.269531 0-27.648438-12.378906-27.648438-27.648437 0-15.273438 12.378907-27.652344 27.648438-27.652344 15.273438 0 27.652344 12.378906 27.652344 27.652344zm0 0"/><path d="m478.730469 61.085938c0 15.269531-12.378907 27.648437-27.648438 27.648437-15.273437 0-27.652343-12.378906-27.652343-27.648437 0-15.273438 12.378906-27.652344 27.652343-27.652344 15.269531 0 27.648438 12.378906 27.648438 27.652344zm0 0"/><path d="m88.902344 357.582031c0 15.269531-12.378906 27.648438-27.652344 27.648438-15.269531 0-27.648438-12.378907-27.648438-27.648438 0-15.273437 12.378907-27.652343 27.648438-27.652343 15.273438 0 27.652344 12.378906 27.652344 27.652343zm0 0"/><path d="m478.730469 357.582031c0 15.269531-12.378907 27.648438-27.648438 27.648438-15.273437 0-27.652343-12.378907-27.652343-27.648438 0-15.273437 12.378906-27.652343 27.652343-27.652343 15.269531 0 27.648438 12.378906 27.648438 27.652343zm0 0"/></g><path d="m63.933594 61.085938c0-9.667969 4.964844-18.175782 12.484375-23.117188-4.355469-2.863281-9.566407-4.535156-15.167969-4.535156-15.269531 0-27.648438 12.382812-27.648438 27.652344 0 15.269531 12.378907 27.648437 27.648438 27.648437 5.601562 0 10.8125-1.667969 15.167969-4.53125-7.515625-4.945313-12.484375-13.449219-12.484375-23.117187zm0 0" fill="#ffd301"/><path d="m466.246094 37.96875c-4.355469-2.863281-9.5625-4.535156-15.167969-4.535156-15.269531 0-27.648437 12.382812-27.648437 27.652344 0 15.269531 12.378906 27.648437 27.648437 27.648437 5.605469 0 10.8125-1.667969 15.167969-4.535156-16.644532-10.941407-16.625-35.296875 0-46.230469zm0 0" fill="#ffd301"/><path d="m63.933594 357.582031c0-9.671875 4.964844-18.175781 12.484375-23.117187-4.355469-2.863282-9.566407-4.535156-15.167969-4.535156-15.269531 0-27.648438 12.382812-27.648438 27.652343s12.378907 27.648438 27.648438 27.648438c5.601562 0 10.8125-1.667969 15.167969-4.53125-7.515625-4.945313-12.484375-13.449219-12.484375-23.117188zm0 0" fill="#ffd301"/><path d="m453.765625 357.582031c0-9.671875 4.964844-18.175781 12.480469-23.117187-4.351563-2.863282-9.5625-4.535156-15.164063-4.535156-15.273437 0-27.652343 12.378906-27.652343 27.652343 0 15.269531 12.382812 27.648438 27.652343 27.648438 5.601563 0 10.808594-1.671875 15.164063-4.535157-7.515625-4.941406-12.480469-13.445312-12.480469-23.113281zm0 0" fill="#ffd301"/><path d="m53.585938 159.917969v163.324219c-15.789063 3.449218-27.652344 17.53125-27.652344 34.339843 0 19.378907 15.769531 35.148438 35.152344 35.148438 16.808593 0 30.890624-11.859375 34.335937-27.648438h321.15625c3.445313 15.789063 17.527344 27.648438 34.335937 27.648438 19.382813 0 35.152344-15.769531 35.152344-35.148438 0-16.808593-11.863281-30.890625-27.652344-34.339843v-64.472657c0-.007812 0-.015625 0-.019531v-31.917969c0-4.140625-3.355468-7.5-7.5-7.5-4.140624 0-7.5 3.359375-7.5 7.5v24.417969h-114.941406v-83.832031h114.941406v24.414062c0 4.144531 3.359376 7.5 7.5 7.5 4.144532 0 7.5-3.355469 7.5-7.5v-31.914062c0-.007813 0-.011719 0-.019531v-64.476563c15.789063-3.445313 27.652344-17.527344 27.652344-34.335937 0-19.382813-15.769531-35.152344-35.152344-35.152344-16.808593 0-30.890624 11.863281-34.335937 27.652344-6.347656 0-135.675781 0-143.078125 0-4.140625 0-7.5 3.359374-7.5 7.5 0 4.140624 3.359375 7.5 7.5 7.5h39.972656v83.832031h-114.945312v-83.832031h39.972656c4.144531 0 7.5-3.359376 7.5-7.5 0-4.140626-3.355469-7.5-7.5-7.5-7.402344 0-136.730469 0-143.078125 0-3.445313-15.789063-17.527344-27.652344-34.335937-27.652344-19.382813 0-35.152344 15.769531-35.152344 35.152344 0 16.808593 11.863281 30.890624 27.652344 34.335937zm397.328124-118.984375c11.113282 0 20.152344 9.042968 20.152344 20.152344 0 11.109374-9.039062 20.148437-20.152344 20.148437-3.933593 0-7.597656-1.148437-10.703124-3.105469-5.664063-3.574218-9.445313-9.867187-9.445313-17.042968 0-.003907 0-.003907 0-.011719.003906-11.105469 9.042969-20.140625 20.148437-20.140625zm-122.441406 27.652344h88.097656v56.988281h-114.941406v-83.832031h26.84375zm122.441406 268.84375c11.113282 0 20.152344 9.039062 20.152344 20.148437 0 11.113281-9.039062 20.152344-20.152344 20.152344-11.105468 0-20.144531-9.035157-20.148437-20.140625 0-.003906 0-.007813 0-.011719 0-7.175781 3.78125-13.46875 9.441406-17.039063 3.109375-1.957031 6.773438-3.109374 10.707031-3.109374zm-122.441406-71.179688h114.941406v56.984375c-13.359374 2.917969-23.9375 13.507813-26.84375 26.847656h-88.101562v-83.832031zm-129.945312-98.832031h114.941406v83.832031h-114.941406zm0 98.832031h114.941406v83.832031h-114.941406zm-15 83.832031h-88.097656c-2.96875-13.574219-13.714844-23.988281-26.84375-26.847656v-56.984375h114.941406zm0-98.832031h-114.941406v-83.832031h114.941406zm-88.097656-182.664062h88.101562v83.832031h-114.945312v-56.988281c13.179687-2.867188 23.886718-13.328126 26.84375-26.84375zm-54.496094-7.5c0-11.113282 9.039062-20.152344 20.152344-20.152344 11.109374 0 20.148437 9.039062 20.148437 20.152344 0 11.109374-9.039063 20.148437-20.148437 20.148437-11.113282 0-20.152344-9.039063-20.152344-20.148437zm20.152344 276.34375c11.109374 0 20.148437 9.039062 20.148437 20.148437 0 11.113281-9.039063 20.152344-20.148437 20.152344-11.113282 0-20.152344-9.039063-20.152344-20.152344 0-11.109375 9.039062-20.148437 20.152344-20.148437zm0 0"/><path d="m7.5 68.585938c4.144531 0 7.5-3.359376 7.5-7.5v-46.085938h46.085938c4.140624 0 7.5-3.359375 7.5-7.5s-3.359376-7.5-7.5-7.5h-53.585938c-4.144531 0-7.5 3.359375-7.5 7.5v53.585938c0 4.140624 3.355469 7.5 7.5 7.5zm0 0"/><path d="m512 7.5c0-4.140625-3.355469-7.5-7.5-7.5h-53.585938c-4.140624 0-7.5 3.359375-7.5 7.5s3.359376 7.5 7.5 7.5h46.085938v46.085938c0 4.140624 3.355469 7.5 7.5 7.5s7.5-3.359376 7.5-7.5zm0 0"/><path d="m7.5 418.667969h53.585938c4.140624 0 7.5-3.359375 7.5-7.5 0-4.144531-3.359376-7.5-7.5-7.5h-46.085938v-46.085938c0-4.144531-3.355469-7.5-7.5-7.5s-7.5 3.355469-7.5 7.5v53.585938c0 4.140625 3.355469 7.5 7.5 7.5zm0 0"/><path d="m512 411.167969v-53.585938c0-4.144531-3.355469-7.5-7.5-7.5s-7.5 3.355469-7.5 7.5v46.085938h-46.085938c-4.140624 0-7.5 3.355469-7.5 7.5 0 4.140625 3.359376 7.5 7.5 7.5h53.585938c4.144531 0 7.5-3.359375 7.5-7.5zm0 0"/></svg>
