<?xml version="1.0" encoding="iso-8859-1"?>
<svg xmlns="http://www.w3.org/2000/svg" xmlns:xlink="http://www.w3.org/1999/xlink" version="1.1" id="Capa_1" x="0px" y="0px" viewBox="0 0 512 512" style="enable-background:new 0 0 512 512;" xml:space="preserve" width="512" height="512">
<g>
	<path style="fill:#BDD9F1;" d="M512,150c0,49.501-41.499,90-91,90l-165-21l-117.001-15C127.301,188.401,121,169.501,121,150   c0-49.501,40.499-90,90-90c3.3,0,6.599,0.3,9.901,0.601C228.701,43.5,241,29.099,256,18.9C273.1,6.899,293.8,0,316,0   c41.4,0,77.999,23.699,95.099,60.601C414.401,60.3,417.7,60,421,60C470.501,60,512,100.499,512,150z"/>
	<g>
		<path style="fill:#25D9F8;" d="M346,512c-8.291,0-15-6.709-15-15V346c0-8.291,6.709-15,15-15s15,6.709,15,15v91.029    C373.539,427.596,389.124,422,406,422c8.291,0,15,6.709,15,15s-6.709,15-15,15c-24.814,0-45,20.186-45,45    C361,505.291,354.291,512,346,512z"/>
	</g>
	<g>
		<path style="fill:#76E2F8;" d="M166,512c-8.291,0-15-6.709-15-15c0-24.814-20.186-45-45-45c-8.291,0-15-6.709-15-15    s6.709-15,15-15c16.874,0,32.461,5.596,45,15.029V346c0-8.291,6.709-15,15-15s15,6.709,15,15v151C181,505.291,174.291,512,166,512    z"/>
	</g>
	<g>
		<path style="fill:#76E2F8;" d="M271,346v61c0,8.401-6.599,15-15,15s-15-6.599-15-15v-61c0-8.401,6.599-15,15-15    S271,337.599,271,346z"/>
	</g>
	<g>
		<path style="fill:#76E2F8;" d="M256,452c-16.5,0-30,13.5-30,30s13.5,30,30,30s30-13.5,30-30S272.5,452,256,452z"/>
	</g>
	<g>
		<path style="fill:#76E2F8;" d="M30,467c-16.538,0-30-13.462-30-30s13.462-30,30-30s30,13.462,30,30S46.538,467,30,467z"/>
	</g>
	<g>
		<g>
			<path style="fill:#25D9F8;" d="M482,467c-16.538,0-30-13.462-30-30s13.462-30,30-30s30,13.462,30,30S498.538,467,482,467z"/>
		</g>
	</g>
	<path style="fill:#25D9F8;" d="M271,346v61c0,8.401-6.599,15-15,15v-91C264.401,331,271,337.599,271,346z"/>
	<path style="fill:#99B9D9;" d="M512,150c0,49.501-41.499,90-91,90l-165-21V18.9C273.1,6.899,293.8,0,316,0   c41.4,0,77.999,23.699,95.099,60.601C414.401,60.3,417.7,60,421,60C470.501,60,512,100.499,512,150z"/>
	<path style="fill:#25D9F8;" d="M286,482c0,16.5-13.5,30-30,30v-60C272.5,452,286,465.5,286,482z"/>
	<g id="Hail">
		<g>
			<g>
				<path style="fill:#E0F3FC;" d="M351.099,181.601C333.999,144.699,297.4,121,256,121s-77.999,23.699-95.099,60.601      C157.599,181.3,154.3,181,151,181c-49.501,0-90,40.499-90,90s40.499,90,90,90h210c49.501,0,91-40.499,91-90      C452,218.2,403.299,175.901,351.099,181.601z"/>
			</g>
		</g>
	</g>
	<path style="fill:#BDD9F1;" d="M452,271c0,49.501-41.499,90-91,90H256V121c41.4,0,77.999,23.699,95.099,60.601   C403.299,175.901,452,218.2,452,271z"/>
</g>
</svg>
